<svg xmlns="http://www.w3.org/2000/svg" width="256" height="256" viewBox="0 0 100 100"><path fill="#8dc53f" d="M36.42 33.73L29.18 68L21.16 68L12.82 42.08L12.68 42.08L12.58 42.83Q11.83 47.89 11.04 51.88L11.04 51.88L7.64 68L1.19 68L8.43 33.73L16.80 33.73L24.77 58.98L24.86 58.98Q25.14 57.20 25.78 53.89Q26.41 50.59 30.00 33.73L30.00 33.73L36.42 33.73ZM43.73 35.66L43.73 35.66Q43.73 33.62 44.84 32.57Q45.96 31.53 48.00 31.53L48.00 31.53Q49.71 31.53 50.60 32.26Q51.49 32.98 51.49 34.34L51.49 34.34Q51.49 36.22 50.46 37.38Q49.43 38.54 47.27 38.54L47.27 38.54Q43.73 38.54 43.73 35.66ZM49.66 41.80L44.11 68L37.05 68L42.61 41.80L49.66 41.80ZM70.17 41.30L70.17 41.30Q71.55 41.30 72.42 41.56L72.42 41.56L70.87 48.36Q69.82 47.98 68.53 47.98L68.53 47.98Q65.81 47.98 63.76 50.13Q61.71 52.27 60.84 56.28L60.84 56.28L58.36 68L51.30 68L56.86 41.80L62.25 41.80L61.75 46.65L61.89 46.65Q65.34 41.30 70.17 41.30ZM73.80 55.95L76.78 41.80L83.83 41.80L80.62 57.10Q80.25 58.70 80.25 59.89L80.25 59.89Q80.25 62.77 82.78 62.77L82.78 62.77Q84.93 62.77 86.69 60.10Q88.45 57.43 89.46 52.65L89.46 52.65L91.75 41.80L98.81 41.80L93.25 68L87.86 68L88.36 63.15L88.21 63.15Q84.82 68.47 79.89 68.47L79.89 68.47Q76.66 68.47 74.95 66.54Q73.24 64.60 73.24 60.95L73.24 60.95Q73.24 58.77 73.80 55.95L73.80 55.95Z"></path></svg>